{"title":"Little.Big.Man.1970.720p.BluRay.X264-AMIABLE","uid":6779050,"size":5875071036,"categoryP":"video","categoryS":"hd___movies","magnet":"?xt=urn:btih:7daad3e1af9633c13a60baf9d7f4e9e64bae550f&amp;dn=Little.Big.Man.1970.720p.BluRay.X264-AMIABLE&amp;tr=udp%3A%2F%2Ftracker.openbittorrent.com%3A80&amp;tr=udp%3A%2F%2Fopen.demonii.com%3A1337&amp;tr=udp%3A%2F%2Ftracker.coppersurfer.tk%3A6969&amp;tr=udp%3A%2F%2Fexodus.desync.com%3A6969","seeders":1,"leechers":0,"uploader":"mfccorrea","files":3,"time":1319832777,"description":"&quot;Recounting how the West was won through the eyes of a white man raised as a Native American, Arthur Penn's 1970 adaptation of Thomas Berger's satirical novel was a comic yet stinging allegory about the bloody results of American imperialism. As a misguided 20th-century historian listens, 121-year-old Jack Crabb (Dustin Hoffman) narrates the story of being the only white survivor of Custer's Last Stand. White orphan Crabb was adopted by the Cheyenne, renamed &quot;Little Big Man,&quot; and raised in the ways of the &quot;Human Beings&quot; by paternal mentor Old Lodge Skins (Chief Dan George), accepting non-conformity and living peacefully with nature. Violently thrust into the white world, Jack meets a righteous preacher (Thayer David) and his wife (Faye Dunaway), tries to be a gunfighter under the tutelage of Wild Bill Hickock (Jeff Corey), and gets married. Returned to the Cheyenne by chance, Jack prefers life as a Human Being. The carnage wreaked by the white man in the Washita massacre and the lethal fallout from the egomania of General George A. Custer (Richard Mulligan) at Little Big Horn, however, show Crabb the horrific implications of Old Lodge Skins' sage observation, &quot;There is an endless supply of White Men, but there has always been a limited number of Human Beings.&quot;' -- Lucia Bozzola\n\nD:\\BT Para Enviar\\Little.Big.Man.1970.720p.BluRay.X264-AMIABLE\\Little.Big.Man.1970.720p.BluRay.X264-AMIABLE.mkv\n   General\n      Complete name : D:\\BT Para Enviar\\Little.Big.Man.1970.720p.BluRay.X264-AMIABLE\\Little.Big.Man.1970.720p.BluRay.X264-AMIABLE.mkv\n      Format : Matroska\n      File size : 5.47 GiB\n      Duration : 2h 19mn\n      Overall bit rate : 5 613 Kbps\n      Writing application : x264.exe\n      Writing library : mkv2rls v1.4 (date: 2011 mar 29)\n   Video #1\n      ID : 1\n      Format : AVC\n      Format/Info : Advanced Video Codec\n      Format profile : &lt;a class=&quot;__cf_email__&quot; href=&quot;/cdn-cgi/l/email-protection&quot; data-cfemail=&quot;2961404e4169651d0718&quot;&gt;[email&amp;#160;protected]&lt;/a&gt;&lt;script cf-hash='f9e31' type=&quot;text/javascript&quot;&gt;\n/* &lt;![CDATA[ */!function(){try{var t=&quot;currentScript&quot;in document?document.currentScript:function(){for(var t=document.getElementsByTagName(&quot;script&quot;),e=t.length;e--;)if(t[e].getAttribute(&quot;cf-hash&quot;))return t[e]}();if(t&amp;&amp;t.previousSibling){var e,r,n,i,c=t.previousSibling,a=c.getAttribute(&quot;data-cfemail&quot;);if(a){for(e=&quot;&quot;,r=parseInt(a.substr(0,2),16),n=2;a.length-n;n+=2)i=parseInt(a.substr(n,2),16)^r,e+=String.fromCharCode(i);e=document.createTextNode(e),c.parentNode.replaceChild(e,c)}}}catch(u){}}();/* ]]&gt; */&lt;/script&gt;\n      Format settings, CABAC : Yes\n      Format settings, ReFrames : 5 frames\n      Muxing mode : Container profile=&lt;a class=&quot;__cf_email__&quot; href=&quot;/cdn-cgi/l/email-protection&quot; data-cfemail=&quot;affac1c4c1c0d8c1ef9b819e&quot;&gt;[email&amp;#160;protected]&lt;/a&gt;&lt;script cf-hash='f9e31' type=&quot;text/javascript&quot;&gt;\n/* &lt;![CDATA[ */!function(){try{var t=&quot;currentScript&quot;in document?document.currentScript:function(){for(var t=document.getElementsByTagName(&quot;script&quot;),e=t.length;e--;)if(t[e].getAttribute(&quot;cf-hash&quot;))return t[e]}();if(t&amp;&amp;t.previousSibling){var e,r,n,i,c=t.previousSibling,a=c.getAttribute(&quot;data-cfemail&quot;);if(a){for(e=&quot;&quot;,r=parseInt(a.substr(0,2),16),n=2;a.length-n;n+=2)i=parseInt(a.substr(n,2),16)^r,e+=String.fromCharCode(i);e=document.createTextNode(e),c.parentNode.replaceChild(e,c)}}}catch(u){}}();/* ]]&gt; */&lt;/script&gt;\n      Codec ID : V_MPEG4/ISO/AVC\n      Duration : 2h 19mn\n      Bit rate : 3 992 Kbps\n      Nominal bit rate : 4 102 Kbps\n      Width : 1 280 pixels\n      Height : 544 pixels\n      Display aspect ratio : 2.35:1\n      Frame rate : 23.976 fps\n      Resolution : 24 bits\n      Colorimetry : 4:2:0\n      Scan type : Progressive\n      Bits/(Pixel*Frame) : 0.239\n      Stream size : 3.88 GiB (71%)\n      Writing library : x264 core 119 r2106 07efeb4     \n   Audio #2\n      ID : 2\n      Format : DTS\n      Format/Info : Digital Theater Systems\n      Codec ID : A_DTS\n      Duration : 2h 19mn\n      Bit rate mode : Constant\n      Bit rate : 1 510 Kbps\n      Channel(s) : 6 channels\n      Channel positions : Front: L C R, Surround: L R, LFE\n      Sampling rate : 48.0 KHz\n      Resolution : 24 bits\n      Stream size : 1.47 GiB (27%)\n      Language : English\n   Text #3\n      ID : 3\n      Format : UTF-8\n      Codec ID : S_TEXT/UTF8\n      Codec ID/Info : UTF-8 Plain Text\n      Language : English\n &lt;a href=&quot;\nhttp://www.imdb.com/title/tt0065988/&quot; rel=&quot;nofollow&quot; target=&quot;_NEW&quot;&gt;\nhttp://www.imdb.com/title/tt0065988/&lt;/a&gt;\n\n\nEnglish audio; English subtitles","torrent":{"xt":"urn:btih:7daad3e1af9633c13a60baf9d7f4e9e64bae550f","amp;dn":"Little.Big.Man.1970.720p.BluRay.X264-AMIABLE","amp;tr":["udp%3A%2F%2Ftracker.openbittorrent.com%3A80","udp%3A%2F%2Fopen.demonii.com%3A1337","udp%3A%2F%2Ftracker.coppersurfer.tk%3A6969","udp%3A%2F%2Fexodus.desync.com%3A6969"],"infoHash":"7daad3e1af9633c13a60baf9d7f4e9e64bae550f","infoHashBuffer":{"type":"Buffer","data":[125,170,211,225,175,150,51,193,58,96,186,249,215,244,233,230,75,174,85,15]},"announce":[],"urlList":[]}}